<mxfile host="Electron" modified="2024-06-19T23:08:34.412Z" agent="Mozilla/5.0 (Macintosh; Intel Mac OS X 10_15_7) AppleWebKit/537.36 (KHTML, like Gecko) draw.io/24.5.3 Chrome/124.0.6367.207 Electron/30.0.6 Safari/537.36" etag="-zF0U5HYfJWTGGwLWIdi" version="24.5.3" type="device" pages="3">
  <diagram id="F12JZfYXKcY45n_DoZql" name="Block Environment">
    <mxGraphModel dx="545" dy="1285" grid="1" gridSize="10" guides="1" tooltips="1" connect="1" arrows="1" fold="1" page="1" pageScale="1" pageWidth="1600" pageHeight="900" math="0" shadow="0">
      <root>
        <mxCell id="0" />
        <mxCell id="1" parent="0" />
        <mxCell id="68_xG1gNsQ3H1-Qj5Mpm-24" value="" style="ellipse;whiteSpace=wrap;html=1;aspect=fixed;connectable=0;allowArrows=0;fillColor=#f5f5f5;fontColor=#333333;strokeColor=#666666;" parent="1" vertex="1">
          <mxGeometry x="550" y="790" width="20" height="20" as="geometry" />
        </mxCell>
        <mxCell id="hAvPR3kHlmy_cGv-ftQP-1" value="&lt;b&gt;Block&lt;/b&gt;" style="swimlane;fontStyle=0;childLayout=stackLayout;horizontal=1;startSize=30;horizontalStack=0;resizeParent=1;resizeParentMax=0;resizeLast=0;collapsible=1;marginBottom=0;whiteSpace=wrap;html=1;" parent="1" vertex="1">
          <mxGeometry x="40" y="40" width="260" height="180" as="geometry" />
        </mxCell>
        <mxCell id="hAvPR3kHlmy_cGv-ftQP-2" value="&lt;b&gt;Type:&lt;/b&gt; str" style="text;strokeColor=none;fillColor=none;align=left;verticalAlign=middle;spacingLeft=4;spacingRight=4;overflow=hidden;points=[[0,0.5],[1,0.5]];portConstraint=eastwest;rotatable=0;whiteSpace=wrap;html=1;" parent="hAvPR3kHlmy_cGv-ftQP-1" vertex="1">
          <mxGeometry y="30" width="260" height="30" as="geometry" />
        </mxCell>
        <mxCell id="hAvPR3kHlmy_cGv-ftQP-3" value="&lt;b&gt;Position:&lt;/b&gt; {x: float, y: float, z: float}&amp;nbsp;" style="text;strokeColor=none;fillColor=none;align=left;verticalAlign=middle;spacingLeft=4;spacingRight=4;overflow=hidden;points=[[0,0.5],[1,0.5]];portConstraint=eastwest;rotatable=0;whiteSpace=wrap;html=1;" parent="hAvPR3kHlmy_cGv-ftQP-1" vertex="1">
          <mxGeometry y="60" width="260" height="30" as="geometry" />
        </mxCell>
        <mxCell id="KosSpZD3ncUlgxf-VwmN-1" value="&lt;b&gt;Orientation: &lt;/b&gt;int" style="text;strokeColor=none;fillColor=none;align=left;verticalAlign=middle;spacingLeft=4;spacingRight=4;overflow=hidden;points=[[0,0.5],[1,0.5]];portConstraint=eastwest;rotatable=0;whiteSpace=wrap;html=1;" parent="hAvPR3kHlmy_cGv-ftQP-1" vertex="1">
          <mxGeometry y="90" width="260" height="30" as="geometry" />
        </mxCell>
        <mxCell id="hAvPR3kHlmy_cGv-ftQP-5" value="&lt;b&gt;Color:&lt;/b&gt;&amp;nbsp;{R: int, G: int, B: int}" style="text;strokeColor=none;fillColor=none;align=left;verticalAlign=middle;spacingLeft=4;spacingRight=4;overflow=hidden;points=[[0,0.5],[1,0.5]];portConstraint=eastwest;rotatable=0;whiteSpace=wrap;html=1;" parent="hAvPR3kHlmy_cGv-ftQP-1" vertex="1">
          <mxGeometry y="120" width="260" height="30" as="geometry" />
        </mxCell>
        <mxCell id="hAvPR3kHlmy_cGv-ftQP-4" value="&lt;b&gt;SequenceIndex:&lt;/b&gt; int" style="text;strokeColor=none;fillColor=none;align=left;verticalAlign=middle;spacingLeft=4;spacingRight=4;overflow=hidden;points=[[0,0.5],[1,0.5]];portConstraint=eastwest;rotatable=0;whiteSpace=wrap;html=1;" parent="hAvPR3kHlmy_cGv-ftQP-1" vertex="1">
          <mxGeometry y="150" width="260" height="30" as="geometry" />
        </mxCell>
        <mxCell id="gbmZhqpwLv1sCHuPzr3j-1" value="Orientation is 0 or 1 because the block has a fixed rotation on X and Z axes and only two orthogonal orientations w.r.t Y axis" style="rounded=0;whiteSpace=wrap;html=1;strokeColor=#d6b656;strokeWidth=1;fontSize=12;fillColor=#fff2cc;verticalAlign=top;align=left;" parent="1" vertex="1">
          <mxGeometry x="320" y="130" width="200" height="80" as="geometry" />
        </mxCell>
        <mxCell id="68_xG1gNsQ3H1-Qj5Mpm-1" value="" style="endArrow=none;dashed=1;html=1;rounded=0;" parent="1" edge="1">
          <mxGeometry width="50" height="50" relative="1" as="geometry">
            <mxPoint x="560" y="720" as="sourcePoint" />
            <mxPoint x="1560" y="720" as="targetPoint" />
          </mxGeometry>
        </mxCell>
        <mxCell id="68_xG1gNsQ3H1-Qj5Mpm-2" value="" style="endArrow=classic;dashed=1;html=1;rounded=0;endFill=1;strokeColor=#FF0000;" parent="1" edge="1">
          <mxGeometry width="50" height="50" relative="1" as="geometry">
            <mxPoint x="560" y="800" as="sourcePoint" />
            <mxPoint x="1580" y="800" as="targetPoint" />
          </mxGeometry>
        </mxCell>
        <mxCell id="68_xG1gNsQ3H1-Qj5Mpm-4" value="" style="endArrow=classic;dashed=1;html=1;rounded=0;startArrow=none;strokeColor=#0000FF;endFill=1;" parent="1" edge="1">
          <mxGeometry width="50" height="50" relative="1" as="geometry">
            <mxPoint x="560" y="740" as="sourcePoint" />
            <mxPoint x="560" y="50" as="targetPoint" />
          </mxGeometry>
        </mxCell>
        <mxCell id="68_xG1gNsQ3H1-Qj5Mpm-6" value="" style="endArrow=none;dashed=1;html=1;rounded=0;" parent="1" edge="1">
          <mxGeometry width="50" height="50" relative="1" as="geometry">
            <mxPoint x="640" y="800" as="sourcePoint" />
            <mxPoint x="640" y="110" as="targetPoint" />
          </mxGeometry>
        </mxCell>
        <mxCell id="68_xG1gNsQ3H1-Qj5Mpm-7" value="" style="endArrow=none;dashed=1;html=1;rounded=0;" parent="1" edge="1">
          <mxGeometry width="50" height="50" relative="1" as="geometry">
            <mxPoint x="720" y="800" as="sourcePoint" />
            <mxPoint x="720" y="110" as="targetPoint" />
          </mxGeometry>
        </mxCell>
        <mxCell id="68_xG1gNsQ3H1-Qj5Mpm-8" value="" style="endArrow=none;dashed=1;html=1;rounded=0;" parent="1" edge="1">
          <mxGeometry width="50" height="50" relative="1" as="geometry">
            <mxPoint x="560" y="640" as="sourcePoint" />
            <mxPoint x="1560" y="640" as="targetPoint" />
          </mxGeometry>
        </mxCell>
        <mxCell id="68_xG1gNsQ3H1-Qj5Mpm-9" value="" style="endArrow=none;dashed=1;html=1;rounded=0;" parent="1" edge="1">
          <mxGeometry width="50" height="50" relative="1" as="geometry">
            <mxPoint x="560" y="560" as="sourcePoint" />
            <mxPoint x="1560" y="560" as="targetPoint" />
          </mxGeometry>
        </mxCell>
        <mxCell id="68_xG1gNsQ3H1-Qj5Mpm-10" value="" style="endArrow=none;dashed=1;html=1;rounded=0;" parent="1" edge="1">
          <mxGeometry width="50" height="50" relative="1" as="geometry">
            <mxPoint x="560" y="480" as="sourcePoint" />
            <mxPoint x="1560" y="480" as="targetPoint" />
          </mxGeometry>
        </mxCell>
        <mxCell id="68_xG1gNsQ3H1-Qj5Mpm-11" value="" style="endArrow=none;dashed=1;html=1;rounded=0;" parent="1" edge="1">
          <mxGeometry width="50" height="50" relative="1" as="geometry">
            <mxPoint x="800" y="800" as="sourcePoint" />
            <mxPoint x="800" y="110" as="targetPoint" />
          </mxGeometry>
        </mxCell>
        <mxCell id="68_xG1gNsQ3H1-Qj5Mpm-13" value="2x1&lt;br&gt;orient = 0" style="whiteSpace=wrap;html=1;fillColor=#0050ef;fontColor=#ffffff;strokeColor=#001DBC;opacity=50;" parent="1" vertex="1">
          <mxGeometry x="640" y="640" width="160" height="80" as="geometry" />
        </mxCell>
        <mxCell id="68_xG1gNsQ3H1-Qj5Mpm-14" value="Cell [0,0,0]" style="text;html=1;strokeColor=none;fillColor=none;align=center;verticalAlign=middle;whiteSpace=wrap;rounded=0;" parent="1" vertex="1">
          <mxGeometry x="570" y="740" width="60" height="30" as="geometry" />
        </mxCell>
        <mxCell id="68_xG1gNsQ3H1-Qj5Mpm-17" value="" style="ellipse;whiteSpace=wrap;html=1;aspect=fixed;fillColor=none;strokeColor=#FF0000;" parent="1" vertex="1">
          <mxGeometry x="450" y="555" width="20" height="20" as="geometry" />
        </mxCell>
        <mxCell id="68_xG1gNsQ3H1-Qj5Mpm-18" value="Rotation Anchor" style="text;html=1;strokeColor=none;fillColor=none;align=center;verticalAlign=middle;whiteSpace=wrap;rounded=0;" parent="1" vertex="1">
          <mxGeometry x="480" y="550" width="60" height="30" as="geometry" />
        </mxCell>
        <mxCell id="68_xG1gNsQ3H1-Qj5Mpm-20" value="2x1&lt;br&gt;orient = 1" style="whiteSpace=wrap;html=1;fillColor=#0050ef;fontColor=#ffffff;strokeColor=#001DBC;opacity=50;rotation=-90;" parent="1" vertex="1">
          <mxGeometry x="600" y="600" width="160" height="80" as="geometry" />
        </mxCell>
        <mxCell id="68_xG1gNsQ3H1-Qj5Mpm-16" value="" style="ellipse;whiteSpace=wrap;html=1;aspect=fixed;fillColor=#f8cecc;strokeColor=#FF0000;" parent="1" vertex="1">
          <mxGeometry x="670" y="670" width="20" height="20" as="geometry" />
        </mxCell>
        <mxCell id="68_xG1gNsQ3H1-Qj5Mpm-21" value="Unity [0,0,0]" style="text;html=1;strokeColor=none;fillColor=none;align=center;verticalAlign=middle;whiteSpace=wrap;rounded=0;" parent="1" vertex="1">
          <mxGeometry x="530" y="820" width="60" height="30" as="geometry" />
        </mxCell>
        <mxCell id="68_xG1gNsQ3H1-Qj5Mpm-23" value="" style="endArrow=none;dashed=1;html=1;rounded=0;" parent="1" edge="1">
          <mxGeometry width="50" height="50" relative="1" as="geometry">
            <mxPoint x="560" y="800" as="sourcePoint" />
            <mxPoint x="560" y="800" as="targetPoint" />
          </mxGeometry>
        </mxCell>
        <mxCell id="68_xG1gNsQ3H1-Qj5Mpm-25" value="Unity [1,0,0]" style="text;html=1;strokeColor=none;fillColor=none;align=center;verticalAlign=middle;whiteSpace=wrap;rounded=0;" parent="1" vertex="1">
          <mxGeometry x="610" y="820" width="60" height="30" as="geometry" />
        </mxCell>
        <mxCell id="68_xG1gNsQ3H1-Qj5Mpm-26" value="unity pos = [2, 0.5, 1.5]" style="rounded=0;whiteSpace=wrap;html=1;connectable=0;allowArrows=0;fontSize=10;" parent="1" vertex="1">
          <mxGeometry x="760" y="690" width="110" height="20" as="geometry" />
        </mxCell>
        <mxCell id="68_xG1gNsQ3H1-Qj5Mpm-27" value="unity pos = [1.5, 0.5, 2]" style="rounded=0;whiteSpace=wrap;html=1;connectable=0;allowArrows=0;fontSize=10;" parent="1" vertex="1">
          <mxGeometry x="680" y="580" width="130" height="20" as="geometry" />
        </mxCell>
        <mxCell id="68_xG1gNsQ3H1-Qj5Mpm-28" value="Unity [0,0,1]" style="text;html=1;strokeColor=none;fillColor=none;align=center;verticalAlign=middle;whiteSpace=wrap;rounded=0;" parent="1" vertex="1">
          <mxGeometry x="490" y="700" width="60" height="30" as="geometry" />
        </mxCell>
        <mxCell id="68_xG1gNsQ3H1-Qj5Mpm-29" value="grid pos = [1, 0, 1]" style="rounded=0;whiteSpace=wrap;html=1;connectable=0;allowArrows=0;fontSize=10;fillColor=#f8cecc;strokeColor=none;" parent="1" vertex="1">
          <mxGeometry x="550" y="660" width="110" height="20" as="geometry" />
        </mxCell>
        <mxCell id="68_xG1gNsQ3H1-Qj5Mpm-39" value="3x1&lt;br&gt;orient = 0" style="whiteSpace=wrap;html=1;fillColor=#6a00ff;fontColor=#ffffff;strokeColor=#3700CC;opacity=50;" parent="1" vertex="1">
          <mxGeometry x="880" y="640" width="240" height="80" as="geometry" />
        </mxCell>
        <mxCell id="68_xG1gNsQ3H1-Qj5Mpm-40" value="3x1&lt;br&gt;orient = 1" style="whiteSpace=wrap;html=1;fillColor=#6a00ff;fontColor=#ffffff;strokeColor=#3700CC;opacity=50;rotation=-90;" parent="1" vertex="1">
          <mxGeometry x="800" y="560" width="240" height="80" as="geometry" />
        </mxCell>
        <mxCell id="68_xG1gNsQ3H1-Qj5Mpm-41" value="" style="ellipse;whiteSpace=wrap;html=1;aspect=fixed;fillColor=#f8cecc;strokeColor=#FF0000;" parent="1" vertex="1">
          <mxGeometry x="910" y="670" width="20" height="20" as="geometry" />
        </mxCell>
        <mxCell id="68_xG1gNsQ3H1-Qj5Mpm-12" value="" style="endArrow=none;dashed=1;html=1;rounded=0;" parent="1" edge="1">
          <mxGeometry width="50" height="50" relative="1" as="geometry">
            <mxPoint x="880" y="800" as="sourcePoint" />
            <mxPoint x="880" y="110" as="targetPoint" />
          </mxGeometry>
        </mxCell>
        <mxCell id="68_xG1gNsQ3H1-Qj5Mpm-30" value="" style="endArrow=none;dashed=1;html=1;rounded=0;" parent="1" edge="1">
          <mxGeometry width="50" height="50" relative="1" as="geometry">
            <mxPoint x="960" y="800" as="sourcePoint" />
            <mxPoint x="960" y="110" as="targetPoint" />
          </mxGeometry>
        </mxCell>
        <mxCell id="68_xG1gNsQ3H1-Qj5Mpm-31" value="" style="endArrow=none;dashed=1;html=1;rounded=0;" parent="1" edge="1">
          <mxGeometry width="50" height="50" relative="1" as="geometry">
            <mxPoint x="1040" y="800" as="sourcePoint" />
            <mxPoint x="1040" y="110" as="targetPoint" />
          </mxGeometry>
        </mxCell>
        <mxCell id="68_xG1gNsQ3H1-Qj5Mpm-32" value="" style="endArrow=none;dashed=1;html=1;rounded=0;" parent="1" edge="1">
          <mxGeometry width="50" height="50" relative="1" as="geometry">
            <mxPoint x="1120" y="800" as="sourcePoint" />
            <mxPoint x="1120" y="110" as="targetPoint" />
          </mxGeometry>
        </mxCell>
        <mxCell id="68_xG1gNsQ3H1-Qj5Mpm-33" value="" style="endArrow=none;dashed=1;html=1;rounded=0;" parent="1" edge="1">
          <mxGeometry width="50" height="50" relative="1" as="geometry">
            <mxPoint x="1200" y="800" as="sourcePoint" />
            <mxPoint x="1200" y="110" as="targetPoint" />
          </mxGeometry>
        </mxCell>
        <mxCell id="68_xG1gNsQ3H1-Qj5Mpm-34" value="" style="endArrow=none;dashed=1;html=1;rounded=0;" parent="1" edge="1">
          <mxGeometry width="50" height="50" relative="1" as="geometry">
            <mxPoint x="1280" y="800" as="sourcePoint" />
            <mxPoint x="1280" y="110" as="targetPoint" />
          </mxGeometry>
        </mxCell>
        <mxCell id="68_xG1gNsQ3H1-Qj5Mpm-35" value="" style="endArrow=none;dashed=1;html=1;rounded=0;" parent="1" edge="1">
          <mxGeometry width="50" height="50" relative="1" as="geometry">
            <mxPoint x="1360" y="800" as="sourcePoint" />
            <mxPoint x="1360" y="110" as="targetPoint" />
          </mxGeometry>
        </mxCell>
        <mxCell id="68_xG1gNsQ3H1-Qj5Mpm-36" value="" style="endArrow=none;dashed=1;html=1;rounded=0;" parent="1" edge="1">
          <mxGeometry width="50" height="50" relative="1" as="geometry">
            <mxPoint x="1440" y="800" as="sourcePoint" />
            <mxPoint x="1440" y="110" as="targetPoint" />
          </mxGeometry>
        </mxCell>
        <mxCell id="68_xG1gNsQ3H1-Qj5Mpm-37" value="" style="endArrow=none;dashed=1;html=1;rounded=0;" parent="1" edge="1">
          <mxGeometry width="50" height="50" relative="1" as="geometry">
            <mxPoint x="1520" y="800" as="sourcePoint" />
            <mxPoint x="1520" y="110" as="targetPoint" />
          </mxGeometry>
        </mxCell>
        <mxCell id="68_xG1gNsQ3H1-Qj5Mpm-43" value="" style="endArrow=none;dashed=1;html=1;rounded=0;" parent="1" edge="1">
          <mxGeometry width="50" height="50" relative="1" as="geometry">
            <mxPoint x="560" y="400" as="sourcePoint" />
            <mxPoint x="1560" y="400" as="targetPoint" />
          </mxGeometry>
        </mxCell>
        <mxCell id="68_xG1gNsQ3H1-Qj5Mpm-44" value="" style="endArrow=none;dashed=1;html=1;rounded=0;" parent="1" edge="1">
          <mxGeometry width="50" height="50" relative="1" as="geometry">
            <mxPoint x="560" y="320" as="sourcePoint" />
            <mxPoint x="1560" y="320" as="targetPoint" />
          </mxGeometry>
        </mxCell>
        <mxCell id="68_xG1gNsQ3H1-Qj5Mpm-45" value="" style="endArrow=none;dashed=1;html=1;rounded=0;" parent="1" edge="1">
          <mxGeometry width="50" height="50" relative="1" as="geometry">
            <mxPoint x="560" y="240" as="sourcePoint" />
            <mxPoint x="1560" y="240" as="targetPoint" />
          </mxGeometry>
        </mxCell>
        <mxCell id="68_xG1gNsQ3H1-Qj5Mpm-46" value="" style="endArrow=none;dashed=1;html=1;rounded=0;" parent="1" edge="1">
          <mxGeometry width="50" height="50" relative="1" as="geometry">
            <mxPoint x="560" y="160" as="sourcePoint" />
            <mxPoint x="1560" y="160" as="targetPoint" />
          </mxGeometry>
        </mxCell>
        <mxCell id="68_xG1gNsQ3H1-Qj5Mpm-47" value="4x1&lt;br&gt;orient = 0" style="whiteSpace=wrap;html=1;fillColor=#60a917;fontColor=#ffffff;strokeColor=#2D7600;opacity=50;" parent="1" vertex="1">
          <mxGeometry x="1200" y="640" width="320" height="80" as="geometry" />
        </mxCell>
        <mxCell id="68_xG1gNsQ3H1-Qj5Mpm-48" value="4x1&lt;br&gt;orient = 1" style="whiteSpace=wrap;html=1;fillColor=#60a917;fontColor=#ffffff;strokeColor=#2D7600;opacity=50;rotation=-90;" parent="1" vertex="1">
          <mxGeometry x="1080" y="520" width="320" height="80" as="geometry" />
        </mxCell>
        <mxCell id="68_xG1gNsQ3H1-Qj5Mpm-49" value="" style="ellipse;whiteSpace=wrap;html=1;aspect=fixed;fillColor=#f8cecc;strokeColor=#FF0000;" parent="1" vertex="1">
          <mxGeometry x="1230" y="670" width="20" height="20" as="geometry" />
        </mxCell>
        <mxCell id="68_xG1gNsQ3H1-Qj5Mpm-51" value="2x2&lt;br&gt;orient = 0 AND 1" style="whiteSpace=wrap;html=1;fillColor=#f0a30a;fontColor=#000000;strokeColor=#BD7000;opacity=50;" parent="1" vertex="1">
          <mxGeometry x="640" y="320" width="160" height="160" as="geometry" />
        </mxCell>
        <mxCell id="68_xG1gNsQ3H1-Qj5Mpm-52" value="" style="ellipse;whiteSpace=wrap;html=1;aspect=fixed;fillColor=#f8cecc;strokeColor=none;" parent="1" vertex="1">
          <mxGeometry x="450" y="510" width="20" height="20" as="geometry" />
        </mxCell>
        <mxCell id="68_xG1gNsQ3H1-Qj5Mpm-53" value="Position Anchor" style="text;html=1;strokeColor=none;fillColor=none;align=center;verticalAlign=middle;whiteSpace=wrap;rounded=0;" parent="1" vertex="1">
          <mxGeometry x="480" y="505" width="60" height="30" as="geometry" />
        </mxCell>
        <mxCell id="68_xG1gNsQ3H1-Qj5Mpm-54" value="" style="ellipse;whiteSpace=wrap;html=1;aspect=fixed;fillColor=#f8cecc;strokeColor=none;" parent="1" vertex="1">
          <mxGeometry x="670" y="430" width="20" height="20" as="geometry" />
        </mxCell>
        <mxCell id="68_xG1gNsQ3H1-Qj5Mpm-55" value="" style="ellipse;whiteSpace=wrap;html=1;aspect=fixed;fillColor=none;strokeColor=#FF0000;" parent="1" vertex="1">
          <mxGeometry x="710" y="390" width="20" height="20" as="geometry" />
        </mxCell>
        <mxCell id="68_xG1gNsQ3H1-Qj5Mpm-56" value="3x2&lt;br&gt;orient = 0" style="whiteSpace=wrap;html=1;fillColor=#1ba1e2;fontColor=#ffffff;strokeColor=#006EAF;opacity=50;" parent="1" vertex="1">
          <mxGeometry x="640" y="80" width="240" height="160" as="geometry" />
        </mxCell>
        <mxCell id="68_xG1gNsQ3H1-Qj5Mpm-57" value="3x2&lt;br&gt;orient = 1" style="whiteSpace=wrap;html=1;fillColor=#1ba1e2;fontColor=#ffffff;strokeColor=#006EAF;opacity=50;rotation=-90;" parent="1" vertex="1">
          <mxGeometry x="600" y="40" width="240" height="160" as="geometry" />
        </mxCell>
        <mxCell id="68_xG1gNsQ3H1-Qj5Mpm-58" value="" style="ellipse;whiteSpace=wrap;html=1;aspect=fixed;fillColor=#f8cecc;strokeColor=none;" parent="1" vertex="1">
          <mxGeometry x="670" y="190" width="20" height="20" as="geometry" />
        </mxCell>
        <mxCell id="68_xG1gNsQ3H1-Qj5Mpm-59" value="" style="ellipse;whiteSpace=wrap;html=1;aspect=fixed;fillColor=none;strokeColor=#FF0000;" parent="1" vertex="1">
          <mxGeometry x="710" y="150" width="20" height="20" as="geometry" />
        </mxCell>
        <mxCell id="68_xG1gNsQ3H1-Qj5Mpm-60" value="4x2&lt;br&gt;orient = 0" style="whiteSpace=wrap;html=1;fillColor=#e3c800;fontColor=#000000;strokeColor=#B09500;opacity=50;" parent="1" vertex="1">
          <mxGeometry x="960" y="80" width="320" height="160" as="geometry" />
        </mxCell>
        <mxCell id="68_xG1gNsQ3H1-Qj5Mpm-61" value="4x2&lt;br&gt;orient = 1" style="whiteSpace=wrap;html=1;fillColor=#e3c800;fontColor=#000000;strokeColor=#B09500;opacity=50;rotation=-90;" parent="1" vertex="1">
          <mxGeometry x="880" width="320" height="160" as="geometry" />
        </mxCell>
        <mxCell id="68_xG1gNsQ3H1-Qj5Mpm-62" value="" style="ellipse;whiteSpace=wrap;html=1;aspect=fixed;fillColor=#f8cecc;strokeColor=none;" parent="1" vertex="1">
          <mxGeometry x="990" y="190" width="20" height="20" as="geometry" />
        </mxCell>
        <mxCell id="68_xG1gNsQ3H1-Qj5Mpm-63" value="" style="ellipse;whiteSpace=wrap;html=1;aspect=fixed;fillColor=none;strokeColor=#FF0000;" parent="1" vertex="1">
          <mxGeometry x="1030" y="150" width="20" height="20" as="geometry" />
        </mxCell>
        <mxCell id="xhDhrKx8FUv4P4WK9hfT-1" value="unity pos = [5.5, 0.5, 1.5]" style="rounded=0;whiteSpace=wrap;html=1;connectable=0;allowArrows=0;fontSize=10;" vertex="1" parent="1">
          <mxGeometry x="1020" y="670" width="150" height="20" as="geometry" />
        </mxCell>
        <mxCell id="xhDhrKx8FUv4P4WK9hfT-2" value="unity pos = [4.5, 0.5, 2.5]" style="rounded=0;whiteSpace=wrap;html=1;connectable=0;allowArrows=0;fontSize=10;" vertex="1" parent="1">
          <mxGeometry x="940" y="560" width="130" height="20" as="geometry" />
        </mxCell>
        <mxCell id="xhDhrKx8FUv4P4WK9hfT-3" value="grid pos = [4, 0, 1]" style="rounded=0;whiteSpace=wrap;html=1;connectable=0;allowArrows=0;fontSize=10;fillColor=#f8cecc;strokeColor=none;" vertex="1" parent="1">
          <mxGeometry x="810" y="640" width="110" height="20" as="geometry" />
        </mxCell>
        <mxCell id="xhDhrKx8FUv4P4WK9hfT-4" value="unity pos = [10, 0.5, 1.5]" style="rounded=0;whiteSpace=wrap;html=1;connectable=0;allowArrows=0;fontSize=10;" vertex="1" parent="1">
          <mxGeometry x="1350" y="700" width="150" height="20" as="geometry" />
        </mxCell>
        <mxCell id="xhDhrKx8FUv4P4WK9hfT-5" value="unity pos = [8.5, 0.5, 3]" style="rounded=0;whiteSpace=wrap;html=1;connectable=0;allowArrows=0;fontSize=10;" vertex="1" parent="1">
          <mxGeometry x="1300" y="570" width="130" height="20" as="geometry" />
        </mxCell>
        <mxCell id="xhDhrKx8FUv4P4WK9hfT-6" value="grid pos = [8, 0, 1]" style="rounded=0;whiteSpace=wrap;html=1;connectable=0;allowArrows=0;fontSize=10;fillColor=#f8cecc;strokeColor=none;" vertex="1" parent="1">
          <mxGeometry x="1170" y="640" width="110" height="20" as="geometry" />
        </mxCell>
        <mxCell id="xhDhrKx8FUv4P4WK9hfT-7" value="Unity [5,0,0]" style="text;html=1;strokeColor=none;fillColor=none;align=center;verticalAlign=middle;whiteSpace=wrap;rounded=0;" vertex="1" parent="1">
          <mxGeometry x="930" y="820" width="60" height="30" as="geometry" />
        </mxCell>
        <mxCell id="xhDhrKx8FUv4P4WK9hfT-8" value="Unity [10,0,0]" style="text;html=1;strokeColor=none;fillColor=none;align=center;verticalAlign=middle;whiteSpace=wrap;rounded=0;" vertex="1" parent="1">
          <mxGeometry x="1335" y="820" width="60" height="30" as="geometry" />
        </mxCell>
        <mxCell id="xhDhrKx8FUv4P4WK9hfT-10" value="unity pos = [2, 0.5, 5]" style="rounded=0;whiteSpace=wrap;html=1;connectable=0;allowArrows=0;fontSize=10;" vertex="1" parent="1">
          <mxGeometry x="680" y="340" width="130" height="20" as="geometry" />
        </mxCell>
        <mxCell id="xhDhrKx8FUv4P4WK9hfT-11" value="grid pos = [1, 0, 4]" style="rounded=0;whiteSpace=wrap;html=1;connectable=0;allowArrows=0;fontSize=10;fillColor=#f8cecc;strokeColor=none;" vertex="1" parent="1">
          <mxGeometry x="550" y="420" width="110" height="20" as="geometry" />
        </mxCell>
        <mxCell id="xhDhrKx8FUv4P4WK9hfT-12" value="Unity [0,0,5]" style="text;html=1;strokeColor=none;fillColor=none;align=center;verticalAlign=middle;whiteSpace=wrap;rounded=0;" vertex="1" parent="1">
          <mxGeometry x="500" y="380" width="60" height="30" as="geometry" />
        </mxCell>
        <mxCell id="xhDhrKx8FUv4P4WK9hfT-13" value="unity pos = [2.5, 0.5, 8]" style="rounded=0;whiteSpace=wrap;html=1;connectable=0;allowArrows=0;fontSize=10;" vertex="1" parent="1">
          <mxGeometry x="790" y="190" width="150" height="20" as="geometry" />
        </mxCell>
        <mxCell id="xhDhrKx8FUv4P4WK9hfT-14" value="unity pos = [2, 0.5, 8.5]" style="rounded=0;whiteSpace=wrap;html=1;connectable=0;allowArrows=0;fontSize=10;" vertex="1" parent="1">
          <mxGeometry x="695" y="20" width="130" height="20" as="geometry" />
        </mxCell>
        <mxCell id="xhDhrKx8FUv4P4WK9hfT-15" value="grid pos = [1, 0, 8]" style="rounded=0;whiteSpace=wrap;html=1;connectable=0;allowArrows=0;fontSize=10;fillColor=#f8cecc;strokeColor=none;" vertex="1" parent="1">
          <mxGeometry x="580" y="160" width="110" height="20" as="geometry" />
        </mxCell>
        <mxCell id="xhDhrKx8FUv4P4WK9hfT-16" value="" style="endArrow=none;dashed=1;html=1;rounded=0;" edge="1" parent="1">
          <mxGeometry width="50" height="50" relative="1" as="geometry">
            <mxPoint x="550" y="79.43" as="sourcePoint" />
            <mxPoint x="1550" y="79.43" as="targetPoint" />
          </mxGeometry>
        </mxCell>
        <mxCell id="xhDhrKx8FUv4P4WK9hfT-17" value="unity pos = [7, 0.5, 8]" style="rounded=0;whiteSpace=wrap;html=1;connectable=0;allowArrows=0;fontSize=10;" vertex="1" parent="1">
          <mxGeometry x="1120" y="190" width="150" height="20" as="geometry" />
        </mxCell>
        <mxCell id="xhDhrKx8FUv4P4WK9hfT-18" value="unity pos = [6, 0.5, 9]" style="rounded=0;whiteSpace=wrap;html=1;connectable=0;allowArrows=0;fontSize=10;" vertex="1" parent="1">
          <mxGeometry x="1040" y="10" width="130" height="20" as="geometry" />
        </mxCell>
        <mxCell id="xhDhrKx8FUv4P4WK9hfT-19" value="grid pos = [5, 0, 8]" style="rounded=0;whiteSpace=wrap;html=1;connectable=0;allowArrows=0;fontSize=10;fillColor=#f8cecc;strokeColor=none;" vertex="1" parent="1">
          <mxGeometry x="910" y="160" width="110" height="20" as="geometry" />
        </mxCell>
      </root>
    </mxGraphModel>
  </diagram>
  <diagram id="WRuSnYGcAvYKLhUB0kVh" name="UX wireframes">
    <mxGraphModel dx="1593" dy="929" grid="1" gridSize="10" guides="1" tooltips="1" connect="1" arrows="1" fold="1" page="1" pageScale="1" pageWidth="1600" pageHeight="900" math="0" shadow="0">
      <root>
        <mxCell id="0" />
        <mxCell id="1" parent="0" />
        <mxCell id="hewYX5v-Wwz6OvOMDls4-1" value="" style="shape=parallelogram;perimeter=parallelogramPerimeter;whiteSpace=wrap;html=1;fixedSize=1;fillColor=#d5e8d4;strokeColor=#82b366;size=330;" vertex="1" parent="1">
          <mxGeometry x="80" y="120" width="1400" height="640" as="geometry" />
        </mxCell>
        <mxCell id="hewYX5v-Wwz6OvOMDls4-2" value="" style="shape=cube;whiteSpace=wrap;html=1;boundedLbl=1;backgroundOutline=1;darkOpacity=0.05;darkOpacity2=0.1;fillColor=#f5f5f5;fontColor=#333333;strokeColor=#666666;opacity=50;" vertex="1" parent="1">
          <mxGeometry x="710" y="390" width="100" height="50" as="geometry" />
        </mxCell>
        <mxCell id="hewYX5v-Wwz6OvOMDls4-3" value="" style="shape=flexArrow;endArrow=classic;html=1;rounded=0;fillColor=#000000;strokeColor=#FFFFFF;width=10.277777777777777;endSize=15.608333333333333;" edge="1" parent="1">
          <mxGeometry x="-1" y="289" width="50" height="50" relative="1" as="geometry">
            <mxPoint x="810" y="465" as="sourcePoint" />
            <mxPoint x="770" y="415" as="targetPoint" />
            <mxPoint x="76" y="-134" as="offset" />
          </mxGeometry>
        </mxCell>
        <mxCell id="hewYX5v-Wwz6OvOMDls4-4" value="" style="rounded=1;whiteSpace=wrap;html=1;fillColor=#f5f5f5;strokeColor=#666666;fontColor=#333333;" vertex="1" parent="1">
          <mxGeometry x="440" y="690" width="620" height="200" as="geometry" />
        </mxCell>
        <mxCell id="hewYX5v-Wwz6OvOMDls4-5" value="" style="shape=parallelogram;perimeter=parallelogramPerimeter;whiteSpace=wrap;html=1;fixedSize=1;fillColor=#d5e8d4;strokeColor=#82b366;size=330;" vertex="1" parent="1">
          <mxGeometry x="1680" y="120" width="1400" height="640" as="geometry" />
        </mxCell>
        <mxCell id="hewYX5v-Wwz6OvOMDls4-6" value="" style="shape=cube;whiteSpace=wrap;html=1;boundedLbl=1;backgroundOutline=1;darkOpacity=0.05;darkOpacity2=0.1;fillColor=#f5f5f5;fontColor=#333333;strokeColor=#666666;opacity=50;" vertex="1" parent="1">
          <mxGeometry x="2310" y="390" width="100" height="50" as="geometry" />
        </mxCell>
        <mxCell id="hewYX5v-Wwz6OvOMDls4-7" value="" style="shape=flexArrow;endArrow=classic;html=1;rounded=0;fillColor=#000000;strokeColor=#FFFFFF;width=10.277777777777777;endSize=15.608333333333333;" edge="1" parent="1">
          <mxGeometry x="-1" y="289" width="50" height="50" relative="1" as="geometry">
            <mxPoint x="2410" y="465" as="sourcePoint" />
            <mxPoint x="2370" y="415" as="targetPoint" />
            <mxPoint x="76" y="-134" as="offset" />
          </mxGeometry>
        </mxCell>
        <mxCell id="hewYX5v-Wwz6OvOMDls4-8" value="" style="rounded=1;whiteSpace=wrap;html=1;fillColor=#f5f5f5;strokeColor=#666666;fontColor=#333333;" vertex="1" parent="1">
          <mxGeometry x="2040" y="770" width="620" height="120" as="geometry" />
        </mxCell>
        <mxCell id="hewYX5v-Wwz6OvOMDls4-9" value="" style="shape=cube;whiteSpace=wrap;html=1;boundedLbl=1;backgroundOutline=1;darkOpacity=0.05;darkOpacity2=0.1;fillColor=#0050ef;fontColor=#ffffff;strokeColor=#001DBC;" vertex="1" parent="1">
          <mxGeometry x="2250" y="800" width="100" height="50" as="geometry" />
        </mxCell>
        <mxCell id="hewYX5v-Wwz6OvOMDls4-10" value="" style="shape=cube;whiteSpace=wrap;html=1;boundedLbl=1;backgroundOutline=1;darkOpacity=0.05;darkOpacity2=0.1;fillColor=#e51400;fontColor=#ffffff;strokeColor=#B20000;" vertex="1" parent="1">
          <mxGeometry x="2140" y="800" width="70" height="50" as="geometry" />
        </mxCell>
        <mxCell id="hewYX5v-Wwz6OvOMDls4-11" value="" style="shape=cube;whiteSpace=wrap;html=1;boundedLbl=1;backgroundOutline=1;darkOpacity=0.05;darkOpacity2=0.1;fillColor=#e3c800;fontColor=#000000;strokeColor=#B09500;" vertex="1" parent="1">
          <mxGeometry x="2370" y="800" width="120" height="50" as="geometry" />
        </mxCell>
        <mxCell id="hewYX5v-Wwz6OvOMDls4-12" value="1" style="text;html=1;strokeColor=none;fillColor=none;align=center;verticalAlign=middle;whiteSpace=wrap;rounded=0;fontStyle=1;fontSize=30;" vertex="1" parent="1">
          <mxGeometry x="2150" y="860" width="60" height="30" as="geometry" />
        </mxCell>
        <mxCell id="hewYX5v-Wwz6OvOMDls4-13" value="2&lt;span style=&quot;color: rgba(0, 0, 0, 0); font-family: monospace; font-size: 0px; font-weight: 400; text-align: start;&quot;&gt;%3CmxGraphModel%3E%3Croot%3E%3CmxCell%20id%3D%220%22%2F%3E%3CmxCell%20id%3D%221%22%20parent%3D%220%22%2F%3E%3CmxCell%20id%3D%222%22%20value%3D%221%22%20style%3D%22text%3Bhtml%3D1%3BstrokeColor%3Dnone%3BfillColor%3Dnone%3Balign%3Dcenter%3BverticalAlign%3Dmiddle%3BwhiteSpace%3Dwrap%3Brounded%3D0%3BfontStyle%3D1%3BfontSize%3D30%3B%22%20vertex%3D%221%22%20parent%3D%221%22%3E%3CmxGeometry%20x%3D%22430%22%20y%3D%22720%22%20width%3D%2260%22%20height%3D%2230%22%20as%3D%22geometry%22%2F%3E%3C%2FmxCell%3E%3C%2Froot%3E%3C%2FmxGraphModel%3E&lt;/span&gt;" style="text;html=1;strokeColor=none;fillColor=none;align=center;verticalAlign=middle;whiteSpace=wrap;rounded=0;fontStyle=1;fontSize=30;" vertex="1" parent="1">
          <mxGeometry x="2280" y="860" width="60" height="30" as="geometry" />
        </mxCell>
        <mxCell id="hewYX5v-Wwz6OvOMDls4-14" value="3" style="text;html=1;strokeColor=none;fillColor=none;align=center;verticalAlign=middle;whiteSpace=wrap;rounded=0;fontStyle=1;fontSize=30;" vertex="1" parent="1">
          <mxGeometry x="2400" y="860" width="60" height="30" as="geometry" />
        </mxCell>
        <mxCell id="hewYX5v-Wwz6OvOMDls4-15" value="Insert Block" style="rounded=0;whiteSpace=wrap;html=1;fontSize=23;fontStyle=1;strokeWidth=1;" vertex="1" parent="1">
          <mxGeometry x="470" y="710" width="100" height="100" as="geometry" />
        </mxCell>
        <mxCell id="hewYX5v-Wwz6OvOMDls4-16" value="Remove Block" style="rounded=0;whiteSpace=wrap;html=1;fontSize=23;fontStyle=1" vertex="1" parent="1">
          <mxGeometry x="600" y="710" width="100" height="100" as="geometry" />
        </mxCell>
        <mxCell id="hewYX5v-Wwz6OvOMDls4-17" value="Numbers select &quot;maker mode&quot;" style="rounded=0;whiteSpace=wrap;html=1;strokeColor=#d6b656;strokeWidth=1;fontSize=12;fillColor=#fff2cc;verticalAlign=top;align=left;" vertex="1" parent="1">
          <mxGeometry x="240" y="770" width="120" height="60" as="geometry" />
        </mxCell>
        <mxCell id="hewYX5v-Wwz6OvOMDls4-18" value="Insert Block" style="rounded=0;whiteSpace=wrap;html=1;fontSize=23;fontStyle=1;strokeColor=#FF9900;strokeWidth=5;" vertex="1" parent="1">
          <mxGeometry x="1620" y="10" width="100" height="100" as="geometry" />
        </mxCell>
        <mxCell id="hewYX5v-Wwz6OvOMDls4-19" value="" style="ellipse;whiteSpace=wrap;html=1;aspect=fixed;strokeColor=#666666;strokeWidth=1;fontSize=12;fillColor=#f5f5f5;fontColor=#333333;" vertex="1" parent="1">
          <mxGeometry x="1500" y="10" width="80" height="80" as="geometry" />
        </mxCell>
        <mxCell id="hewYX5v-Wwz6OvOMDls4-20" value="" style="group" vertex="1" connectable="0" parent="1">
          <mxGeometry x="1520" y="25" width="50" height="50" as="geometry" />
        </mxCell>
        <mxCell id="hewYX5v-Wwz6OvOMDls4-21" value="" style="endArrow=classic;html=1;rounded=0;strokeColor=#001DBC;fontSize=12;fillColor=#0050ef;" edge="1" parent="hewYX5v-Wwz6OvOMDls4-20">
          <mxGeometry width="50" height="50" relative="1" as="geometry">
            <mxPoint x="18.75" y="31.25" as="sourcePoint" />
            <mxPoint x="50" y="31.25" as="targetPoint" />
          </mxGeometry>
        </mxCell>
        <mxCell id="hewYX5v-Wwz6OvOMDls4-22" value="" style="endArrow=classic;html=1;rounded=0;strokeColor=#B20000;fontSize=12;fillColor=#e51400;" edge="1" parent="hewYX5v-Wwz6OvOMDls4-20">
          <mxGeometry x="-1" y="-28" width="50" height="50" relative="1" as="geometry">
            <mxPoint x="18.75" y="31.25" as="sourcePoint" />
            <mxPoint y="50" as="targetPoint" />
            <mxPoint x="2" y="-3" as="offset" />
          </mxGeometry>
        </mxCell>
        <mxCell id="hewYX5v-Wwz6OvOMDls4-23" value="" style="endArrow=classic;html=1;rounded=0;strokeColor=#2D7600;fontSize=12;fillColor=#60a917;" edge="1" parent="hewYX5v-Wwz6OvOMDls4-20">
          <mxGeometry x="0.3333" y="20" width="50" height="50" relative="1" as="geometry">
            <mxPoint x="18.75" y="31.25" as="sourcePoint" />
            <mxPoint x="18.75" as="targetPoint" />
            <mxPoint as="offset" />
          </mxGeometry>
        </mxCell>
        <mxCell id="hewYX5v-Wwz6OvOMDls4-24" value="1" style="text;html=1;strokeColor=none;fillColor=none;align=center;verticalAlign=middle;whiteSpace=wrap;rounded=0;fontStyle=1;fontSize=30;" vertex="1" parent="1">
          <mxGeometry x="490" y="840" width="60" height="30" as="geometry" />
        </mxCell>
        <mxCell id="hewYX5v-Wwz6OvOMDls4-25" value="2&lt;span style=&quot;color: rgba(0, 0, 0, 0); font-family: monospace; font-size: 0px; font-weight: 400; text-align: start;&quot;&gt;%3CmxGraphModel%3E%3Croot%3E%3CmxCell%20id%3D%220%22%2F%3E%3CmxCell%20id%3D%221%22%20parent%3D%220%22%2F%3E%3CmxCell%20id%3D%222%22%20value%3D%221%22%20style%3D%22text%3Bhtml%3D1%3BstrokeColor%3Dnone%3BfillColor%3Dnone%3Balign%3Dcenter%3BverticalAlign%3Dmiddle%3BwhiteSpace%3Dwrap%3Brounded%3D0%3BfontStyle%3D1%3BfontSize%3D30%3B%22%20vertex%3D%221%22%20parent%3D%221%22%3E%3CmxGeometry%20x%3D%22430%22%20y%3D%22720%22%20width%3D%2260%22%20height%3D%2230%22%20as%3D%22geometry%22%2F%3E%3C%2FmxCell%3E%3C%2Froot%3E%3C%2FmxGraphModel%3E&lt;/span&gt;" style="text;html=1;strokeColor=none;fillColor=none;align=center;verticalAlign=middle;whiteSpace=wrap;rounded=0;fontStyle=1;fontSize=30;" vertex="1" parent="1">
          <mxGeometry x="620" y="840" width="60" height="30" as="geometry" />
        </mxCell>
        <mxCell id="hewYX5v-Wwz6OvOMDls4-26" value="Middle scroll to zoom&lt;br&gt;&lt;br&gt;Right click to shift view&lt;br&gt;" style="rounded=0;whiteSpace=wrap;html=1;strokeColor=#d6b656;strokeWidth=1;fontSize=12;fillColor=#fff2cc;verticalAlign=top;align=left;" vertex="1" parent="1">
          <mxGeometry x="880" y="430" width="120" height="80" as="geometry" />
        </mxCell>
        <mxCell id="hewYX5v-Wwz6OvOMDls4-27" value="Move Block" style="rounded=0;whiteSpace=wrap;html=1;fontSize=23;fontStyle=1" vertex="1" parent="1">
          <mxGeometry x="720" y="710" width="100" height="100" as="geometry" />
        </mxCell>
      </root>
    </mxGraphModel>
  </diagram>
  <diagram id="C5RBs43oDa-KdzZeNtuy" name="Reference">
    <mxGraphModel dx="1434" dy="836" grid="1" gridSize="10" guides="1" tooltips="1" connect="1" arrows="1" fold="1" page="1" pageScale="1" pageWidth="827" pageHeight="1169" math="0" shadow="0">
      <root>
        <mxCell id="WIyWlLk6GJQsqaUBKTNV-0" />
        <mxCell id="WIyWlLk6GJQsqaUBKTNV-1" parent="WIyWlLk6GJQsqaUBKTNV-0" />
        <mxCell id="zkfFHV4jXpPFQw0GAbJ--0" value="Person" style="swimlane;fontStyle=2;align=center;verticalAlign=top;childLayout=stackLayout;horizontal=1;startSize=26;horizontalStack=0;resizeParent=1;resizeLast=0;collapsible=1;marginBottom=0;rounded=0;shadow=0;strokeWidth=1;" parent="WIyWlLk6GJQsqaUBKTNV-1" vertex="1">
          <mxGeometry x="220" y="120" width="160" height="138" as="geometry">
            <mxRectangle x="230" y="140" width="160" height="26" as="alternateBounds" />
          </mxGeometry>
        </mxCell>
        <mxCell id="zkfFHV4jXpPFQw0GAbJ--1" value="Name" style="text;align=left;verticalAlign=top;spacingLeft=4;spacingRight=4;overflow=hidden;rotatable=0;points=[[0,0.5],[1,0.5]];portConstraint=eastwest;" parent="zkfFHV4jXpPFQw0GAbJ--0" vertex="1">
          <mxGeometry y="26" width="160" height="26" as="geometry" />
        </mxCell>
        <mxCell id="zkfFHV4jXpPFQw0GAbJ--2" value="Phone Number" style="text;align=left;verticalAlign=top;spacingLeft=4;spacingRight=4;overflow=hidden;rotatable=0;points=[[0,0.5],[1,0.5]];portConstraint=eastwest;rounded=0;shadow=0;html=0;" parent="zkfFHV4jXpPFQw0GAbJ--0" vertex="1">
          <mxGeometry y="52" width="160" height="26" as="geometry" />
        </mxCell>
        <mxCell id="zkfFHV4jXpPFQw0GAbJ--3" value="Email Address" style="text;align=left;verticalAlign=top;spacingLeft=4;spacingRight=4;overflow=hidden;rotatable=0;points=[[0,0.5],[1,0.5]];portConstraint=eastwest;rounded=0;shadow=0;html=0;" parent="zkfFHV4jXpPFQw0GAbJ--0" vertex="1">
          <mxGeometry y="78" width="160" height="26" as="geometry" />
        </mxCell>
        <mxCell id="zkfFHV4jXpPFQw0GAbJ--4" value="" style="line;html=1;strokeWidth=1;align=left;verticalAlign=middle;spacingTop=-1;spacingLeft=3;spacingRight=3;rotatable=0;labelPosition=right;points=[];portConstraint=eastwest;" parent="zkfFHV4jXpPFQw0GAbJ--0" vertex="1">
          <mxGeometry y="104" width="160" height="8" as="geometry" />
        </mxCell>
        <mxCell id="zkfFHV4jXpPFQw0GAbJ--5" value="Purchase Parking Pass" style="text;align=left;verticalAlign=top;spacingLeft=4;spacingRight=4;overflow=hidden;rotatable=0;points=[[0,0.5],[1,0.5]];portConstraint=eastwest;" parent="zkfFHV4jXpPFQw0GAbJ--0" vertex="1">
          <mxGeometry y="112" width="160" height="26" as="geometry" />
        </mxCell>
        <mxCell id="zkfFHV4jXpPFQw0GAbJ--6" value="Student" style="swimlane;fontStyle=0;align=center;verticalAlign=top;childLayout=stackLayout;horizontal=1;startSize=26;horizontalStack=0;resizeParent=1;resizeLast=0;collapsible=1;marginBottom=0;rounded=0;shadow=0;strokeWidth=1;" parent="WIyWlLk6GJQsqaUBKTNV-1" vertex="1">
          <mxGeometry x="120" y="360" width="160" height="138" as="geometry">
            <mxRectangle x="130" y="380" width="160" height="26" as="alternateBounds" />
          </mxGeometry>
        </mxCell>
        <mxCell id="zkfFHV4jXpPFQw0GAbJ--7" value="Student Number" style="text;align=left;verticalAlign=top;spacingLeft=4;spacingRight=4;overflow=hidden;rotatable=0;points=[[0,0.5],[1,0.5]];portConstraint=eastwest;" parent="zkfFHV4jXpPFQw0GAbJ--6" vertex="1">
          <mxGeometry y="26" width="160" height="26" as="geometry" />
        </mxCell>
        <mxCell id="zkfFHV4jXpPFQw0GAbJ--8" value="Average Mark" style="text;align=left;verticalAlign=top;spacingLeft=4;spacingRight=4;overflow=hidden;rotatable=0;points=[[0,0.5],[1,0.5]];portConstraint=eastwest;rounded=0;shadow=0;html=0;" parent="zkfFHV4jXpPFQw0GAbJ--6" vertex="1">
          <mxGeometry y="52" width="160" height="26" as="geometry" />
        </mxCell>
        <mxCell id="zkfFHV4jXpPFQw0GAbJ--9" value="" style="line;html=1;strokeWidth=1;align=left;verticalAlign=middle;spacingTop=-1;spacingLeft=3;spacingRight=3;rotatable=0;labelPosition=right;points=[];portConstraint=eastwest;" parent="zkfFHV4jXpPFQw0GAbJ--6" vertex="1">
          <mxGeometry y="78" width="160" height="8" as="geometry" />
        </mxCell>
        <mxCell id="zkfFHV4jXpPFQw0GAbJ--10" value="Is Eligible To Enroll" style="text;align=left;verticalAlign=top;spacingLeft=4;spacingRight=4;overflow=hidden;rotatable=0;points=[[0,0.5],[1,0.5]];portConstraint=eastwest;fontStyle=4" parent="zkfFHV4jXpPFQw0GAbJ--6" vertex="1">
          <mxGeometry y="86" width="160" height="26" as="geometry" />
        </mxCell>
        <mxCell id="zkfFHV4jXpPFQw0GAbJ--11" value="Get Seminars Taken" style="text;align=left;verticalAlign=top;spacingLeft=4;spacingRight=4;overflow=hidden;rotatable=0;points=[[0,0.5],[1,0.5]];portConstraint=eastwest;" parent="zkfFHV4jXpPFQw0GAbJ--6" vertex="1">
          <mxGeometry y="112" width="160" height="26" as="geometry" />
        </mxCell>
        <mxCell id="zkfFHV4jXpPFQw0GAbJ--12" value="" style="endArrow=block;endSize=10;endFill=0;shadow=0;strokeWidth=1;rounded=0;edgeStyle=elbowEdgeStyle;elbow=vertical;" parent="WIyWlLk6GJQsqaUBKTNV-1" source="zkfFHV4jXpPFQw0GAbJ--6" target="zkfFHV4jXpPFQw0GAbJ--0" edge="1">
          <mxGeometry width="160" relative="1" as="geometry">
            <mxPoint x="200" y="203" as="sourcePoint" />
            <mxPoint x="200" y="203" as="targetPoint" />
          </mxGeometry>
        </mxCell>
        <mxCell id="zkfFHV4jXpPFQw0GAbJ--13" value="Professor" style="swimlane;fontStyle=0;align=center;verticalAlign=top;childLayout=stackLayout;horizontal=1;startSize=26;horizontalStack=0;resizeParent=1;resizeLast=0;collapsible=1;marginBottom=0;rounded=0;shadow=0;strokeWidth=1;" parent="WIyWlLk6GJQsqaUBKTNV-1" vertex="1">
          <mxGeometry x="330" y="360" width="160" height="70" as="geometry">
            <mxRectangle x="340" y="380" width="170" height="26" as="alternateBounds" />
          </mxGeometry>
        </mxCell>
        <mxCell id="zkfFHV4jXpPFQw0GAbJ--14" value="Salary" style="text;align=left;verticalAlign=top;spacingLeft=4;spacingRight=4;overflow=hidden;rotatable=0;points=[[0,0.5],[1,0.5]];portConstraint=eastwest;" parent="zkfFHV4jXpPFQw0GAbJ--13" vertex="1">
          <mxGeometry y="26" width="160" height="26" as="geometry" />
        </mxCell>
        <mxCell id="zkfFHV4jXpPFQw0GAbJ--15" value="" style="line;html=1;strokeWidth=1;align=left;verticalAlign=middle;spacingTop=-1;spacingLeft=3;spacingRight=3;rotatable=0;labelPosition=right;points=[];portConstraint=eastwest;" parent="zkfFHV4jXpPFQw0GAbJ--13" vertex="1">
          <mxGeometry y="52" width="160" height="8" as="geometry" />
        </mxCell>
        <mxCell id="zkfFHV4jXpPFQw0GAbJ--16" value="" style="endArrow=block;endSize=10;endFill=0;shadow=0;strokeWidth=1;rounded=0;edgeStyle=elbowEdgeStyle;elbow=vertical;" parent="WIyWlLk6GJQsqaUBKTNV-1" source="zkfFHV4jXpPFQw0GAbJ--13" target="zkfFHV4jXpPFQw0GAbJ--0" edge="1">
          <mxGeometry width="160" relative="1" as="geometry">
            <mxPoint x="210" y="373" as="sourcePoint" />
            <mxPoint x="310" y="271" as="targetPoint" />
          </mxGeometry>
        </mxCell>
        <mxCell id="zkfFHV4jXpPFQw0GAbJ--17" value="Address" style="swimlane;fontStyle=0;align=center;verticalAlign=top;childLayout=stackLayout;horizontal=1;startSize=26;horizontalStack=0;resizeParent=1;resizeLast=0;collapsible=1;marginBottom=0;rounded=0;shadow=0;strokeWidth=1;" parent="WIyWlLk6GJQsqaUBKTNV-1" vertex="1">
          <mxGeometry x="508" y="120" width="160" height="216" as="geometry">
            <mxRectangle x="550" y="140" width="160" height="26" as="alternateBounds" />
          </mxGeometry>
        </mxCell>
        <mxCell id="zkfFHV4jXpPFQw0GAbJ--18" value="Street" style="text;align=left;verticalAlign=top;spacingLeft=4;spacingRight=4;overflow=hidden;rotatable=0;points=[[0,0.5],[1,0.5]];portConstraint=eastwest;" parent="zkfFHV4jXpPFQw0GAbJ--17" vertex="1">
          <mxGeometry y="26" width="160" height="26" as="geometry" />
        </mxCell>
        <mxCell id="zkfFHV4jXpPFQw0GAbJ--19" value="City" style="text;align=left;verticalAlign=top;spacingLeft=4;spacingRight=4;overflow=hidden;rotatable=0;points=[[0,0.5],[1,0.5]];portConstraint=eastwest;rounded=0;shadow=0;html=0;" parent="zkfFHV4jXpPFQw0GAbJ--17" vertex="1">
          <mxGeometry y="52" width="160" height="26" as="geometry" />
        </mxCell>
        <mxCell id="zkfFHV4jXpPFQw0GAbJ--20" value="State" style="text;align=left;verticalAlign=top;spacingLeft=4;spacingRight=4;overflow=hidden;rotatable=0;points=[[0,0.5],[1,0.5]];portConstraint=eastwest;rounded=0;shadow=0;html=0;" parent="zkfFHV4jXpPFQw0GAbJ--17" vertex="1">
          <mxGeometry y="78" width="160" height="26" as="geometry" />
        </mxCell>
        <mxCell id="zkfFHV4jXpPFQw0GAbJ--21" value="Postal Code" style="text;align=left;verticalAlign=top;spacingLeft=4;spacingRight=4;overflow=hidden;rotatable=0;points=[[0,0.5],[1,0.5]];portConstraint=eastwest;rounded=0;shadow=0;html=0;" parent="zkfFHV4jXpPFQw0GAbJ--17" vertex="1">
          <mxGeometry y="104" width="160" height="26" as="geometry" />
        </mxCell>
        <mxCell id="zkfFHV4jXpPFQw0GAbJ--22" value="Country" style="text;align=left;verticalAlign=top;spacingLeft=4;spacingRight=4;overflow=hidden;rotatable=0;points=[[0,0.5],[1,0.5]];portConstraint=eastwest;rounded=0;shadow=0;html=0;" parent="zkfFHV4jXpPFQw0GAbJ--17" vertex="1">
          <mxGeometry y="130" width="160" height="26" as="geometry" />
        </mxCell>
        <mxCell id="zkfFHV4jXpPFQw0GAbJ--23" value="" style="line;html=1;strokeWidth=1;align=left;verticalAlign=middle;spacingTop=-1;spacingLeft=3;spacingRight=3;rotatable=0;labelPosition=right;points=[];portConstraint=eastwest;" parent="zkfFHV4jXpPFQw0GAbJ--17" vertex="1">
          <mxGeometry y="156" width="160" height="8" as="geometry" />
        </mxCell>
        <mxCell id="zkfFHV4jXpPFQw0GAbJ--24" value="Validate" style="text;align=left;verticalAlign=top;spacingLeft=4;spacingRight=4;overflow=hidden;rotatable=0;points=[[0,0.5],[1,0.5]];portConstraint=eastwest;" parent="zkfFHV4jXpPFQw0GAbJ--17" vertex="1">
          <mxGeometry y="164" width="160" height="26" as="geometry" />
        </mxCell>
        <mxCell id="zkfFHV4jXpPFQw0GAbJ--25" value="Output As Label" style="text;align=left;verticalAlign=top;spacingLeft=4;spacingRight=4;overflow=hidden;rotatable=0;points=[[0,0.5],[1,0.5]];portConstraint=eastwest;" parent="zkfFHV4jXpPFQw0GAbJ--17" vertex="1">
          <mxGeometry y="190" width="160" height="26" as="geometry" />
        </mxCell>
        <mxCell id="zkfFHV4jXpPFQw0GAbJ--26" value="" style="endArrow=open;shadow=0;strokeWidth=1;rounded=0;endFill=1;edgeStyle=elbowEdgeStyle;elbow=vertical;" parent="WIyWlLk6GJQsqaUBKTNV-1" source="zkfFHV4jXpPFQw0GAbJ--0" target="zkfFHV4jXpPFQw0GAbJ--17" edge="1">
          <mxGeometry x="0.5" y="41" relative="1" as="geometry">
            <mxPoint x="380" y="192" as="sourcePoint" />
            <mxPoint x="540" y="192" as="targetPoint" />
            <mxPoint x="-40" y="32" as="offset" />
          </mxGeometry>
        </mxCell>
        <mxCell id="zkfFHV4jXpPFQw0GAbJ--27" value="0..1" style="resizable=0;align=left;verticalAlign=bottom;labelBackgroundColor=none;fontSize=12;" parent="zkfFHV4jXpPFQw0GAbJ--26" connectable="0" vertex="1">
          <mxGeometry x="-1" relative="1" as="geometry">
            <mxPoint y="4" as="offset" />
          </mxGeometry>
        </mxCell>
        <mxCell id="zkfFHV4jXpPFQw0GAbJ--28" value="1" style="resizable=0;align=right;verticalAlign=bottom;labelBackgroundColor=none;fontSize=12;" parent="zkfFHV4jXpPFQw0GAbJ--26" connectable="0" vertex="1">
          <mxGeometry x="1" relative="1" as="geometry">
            <mxPoint x="-7" y="4" as="offset" />
          </mxGeometry>
        </mxCell>
        <mxCell id="zkfFHV4jXpPFQw0GAbJ--29" value="lives at" style="text;html=1;resizable=0;points=[];;align=center;verticalAlign=middle;labelBackgroundColor=none;rounded=0;shadow=0;strokeWidth=1;fontSize=12;" parent="zkfFHV4jXpPFQw0GAbJ--26" vertex="1" connectable="0">
          <mxGeometry x="0.5" y="49" relative="1" as="geometry">
            <mxPoint x="-38" y="40" as="offset" />
          </mxGeometry>
        </mxCell>
      </root>
    </mxGraphModel>
  </diagram>
</mxfile>
